<svg width="88" height="19" viewBox="0 0 88 19" fill="none" xmlns="http://www.w3.org/2000/svg">
<path d="M7.22 7.24V3.22C7.22 2.86 7.16 2.63 7.04 2.53C6.92 2.41 6.68 2.35 6.32 2.35H1.91V0.219999H7.16C8.12 0.219999 8.82 0.449999 9.26 0.909999C9.72 1.35 9.95 2 9.95 2.86V7.24H7.22ZM7.22 16V6.55H9.95V16.36C9.95 17.22 9.72 17.88 9.26 18.34C8.82 18.78 8.12 19 7.16 19H1.91V16.87H6.32C6.68 16.87 6.92 16.81 7.04 16.69C7.16 16.57 7.22 16.34 7.22 16ZM0.62 0.219999H3.35V19H0.62V0.219999ZM18.3533 4.33V6.7H17.2733C16.0133 6.7 15.3833 7.43 15.3833 8.89V9.52H15.2633V6.97C15.2633 6.55 15.3533 6.14 15.5333 5.74C15.7333 5.32 16.0133 4.98 16.3733 4.72C16.7533 4.46 17.2133 4.33 17.7533 4.33H18.3533ZM15.3833 19H12.6833V4.36H15.3833V7.09V19ZM22.4117 7.36V16C22.4117 16.34 22.4717 16.57 22.5917 16.69C22.7117 16.81 22.9517 16.87 23.3117 16.87H24.0617V19H22.5617C21.6017 19 20.8917 18.78 20.4317 18.34C19.9917 17.88 19.7717 17.22 19.7717 16.36V7.03C19.7717 6.15 19.9917 5.49 20.4317 5.05C20.8917 4.59 21.6017 4.36 22.5617 4.36H24.2117V6.49H23.3117C22.9517 6.49 22.7117 6.55 22.5917 6.67C22.4717 6.77 22.4117 7 22.4117 7.36ZM25.6517 12.13V7.36C25.6517 7 25.5917 6.77 25.4717 6.67C25.3717 6.55 25.1417 6.49 24.7817 6.49H23.8217V4.36H25.5017C26.4817 4.36 27.1917 4.59 27.6317 5.05C28.0917 5.49 28.3217 6.15 28.3217 7.03V12.13H25.6517ZM25.5917 15.97V14.77H28.2317V16.36C28.2317 17.22 28.0117 17.88 27.5717 18.34C27.1317 18.78 26.4217 19 25.4417 19H23.8217V16.87H24.6917C25.0717 16.87 25.3117 16.81 25.4117 16.69C25.5317 16.57 25.5917 16.33 25.5917 15.97ZM28.3217 10.54V12.52H20.7317V10.54H28.3217ZM33.1623 12.19H30.4623V7.03C30.4623 6.15 30.6823 5.49 31.1223 5.05C31.5623 4.59 32.2423 4.36 33.1623 4.36H34.2423C34.8423 4.36 35.3223 4.52 35.6823 4.84C36.0423 5.16 36.2223 5.68 36.2223 6.4V8.41H36.1023V7.6C36.1023 7.22 36.0223 6.95 35.8623 6.79C35.7023 6.63 35.4523 6.55 35.1123 6.55H34.0623C33.7023 6.55 33.4623 6.61 33.3423 6.73C33.2223 6.83 33.1623 7.06 33.1623 7.42V12.19ZM38.8023 19H36.1023V6.46V6.25V4.36H38.8023V19ZM30.4623 11.17H33.1623V15.94C33.1623 16.28 33.2223 16.51 33.3423 16.63C33.4623 16.75 33.7023 16.81 34.0623 16.81H35.1123C35.4523 16.81 35.7023 16.74 35.8623 16.6C36.0223 16.44 36.1023 16.16 36.1023 15.76V14.98H36.2223V16.96C36.2223 17.68 36.0423 18.2 35.6823 18.52C35.3223 18.84 34.8423 19 34.2423 19H33.1623C32.2423 19 31.5623 18.78 31.1223 18.34C30.6823 17.88 30.4623 17.22 30.4623 16.36V11.17ZM49.1028 14.92H46.6428L44.0628 5.29V19H41.6928V0.219999H44.6628L47.8728 11.86L51.0828 0.219999H54.0528V19H51.6828V5.26L49.1028 14.92ZM62.8616 14.2V7.39C62.8616 7.01 62.8016 6.77 62.6816 6.67C62.5816 6.55 62.3416 6.49 61.9616 6.49H61.0616V4.36H62.7416C63.7216 4.36 64.4316 4.59 64.8716 5.05C65.3116 5.49 65.5316 6.15 65.5316 7.03V14.2H62.8616ZM62.8616 15.97V12.94H65.5316V16.36C65.5316 17.22 65.3116 17.88 64.8716 18.34C64.4316 18.78 63.7216 19 62.7416 19H60.9116V16.87H61.9616C62.3416 16.87 62.5816 16.81 62.6816 16.69C62.8016 16.57 62.8616 16.33 62.8616 15.97ZM59.4416 7.39V14.23H56.7716V7.03C56.7716 6.15 56.9916 5.49 57.4316 5.05C57.8716 4.59 58.5716 4.36 59.5316 4.36H61.2416V6.49H60.3416C59.9816 6.49 59.7416 6.55 59.6216 6.67C59.5016 6.77 59.4416 7.01 59.4416 7.39ZM59.4416 12.76V15.97C59.4416 16.33 59.5016 16.57 59.6216 16.69C59.7416 16.81 59.9816 16.87 60.3416 16.87H61.1516V19H59.5316C58.5716 19 57.8716 18.78 57.4316 18.34C56.9916 17.88 56.7716 17.22 56.7716 16.36V12.76H59.4416ZM73.9651 14.2V7.39C73.9651 7.01 73.9051 6.77 73.7851 6.67C73.6851 6.55 73.4451 6.49 73.0651 6.49H72.1651V4.36H73.8451C74.8251 4.36 75.5351 4.59 75.9751 5.05C76.4151 5.49 76.6351 6.15 76.6351 7.03V14.2H73.9651ZM73.9651 15.97V12.94H76.6351V16.36C76.6351 17.22 76.4151 17.88 75.9751 18.34C75.5351 18.78 74.8251 19 73.8451 19H72.0151V16.87H73.0651C73.4451 16.87 73.6851 16.81 73.7851 16.69C73.9051 16.57 73.9651 16.33 73.9651 15.97ZM70.5451 7.39V14.23H67.8751V7.03C67.8751 6.15 68.0951 5.49 68.5351 5.05C68.9751 4.59 69.6751 4.36 70.6351 4.36H72.3451V6.49H71.4451C71.0851 6.49 70.8451 6.55 70.7251 6.67C70.6051 6.77 70.5451 7.01 70.5451 7.39ZM70.5451 12.76V15.97C70.5451 16.33 70.6051 16.57 70.7251 16.69C70.8451 16.81 71.0851 16.87 71.4451 16.87H72.2551V19H70.6351C69.6751 19 68.9751 18.78 68.5351 18.34C68.0951 17.88 67.8751 17.22 67.8751 16.36V12.76H70.5451ZM81.8286 19H79.1286V4.36H81.8286V6.19V6.37V19ZM87.4686 19H84.7686V7.42C84.7686 7.06 84.7086 6.83 84.5886 6.73C84.4686 6.61 84.2286 6.55 83.8686 6.55H82.8186C82.4786 6.55 82.2286 6.63 82.0686 6.79C81.9086 6.95 81.8286 7.22 81.8286 7.6V8.56H81.7086V6.4C81.7086 5.68 81.8886 5.16 82.2486 4.84C82.6086 4.52 83.0886 4.36 83.6886 4.36H84.7686C85.6886 4.36 86.3686 4.59 86.8086 5.05C87.2486 5.49 87.4686 6.15 87.4686 7.03V19Z" fill="white"/>
</svg>
