<svg width="88" height="19" viewBox="0 0 88 19" fill="none" xmlns="http://www.w3.org/2000/svg">
<path d="M7.22 7.24022V3.22022C7.22 2.86022 7.16 2.63022 7.04 2.53022C6.92 2.41022 6.68 2.35022 6.32 2.35022H1.91V0.220215H7.16C8.12 0.220215 8.82 0.450215 9.26 0.910215C9.72 1.35022 9.95 2.00022 9.95 2.86022V7.24022H7.22ZM7.22 16.0002V6.55022H9.95V16.3602C9.95 17.2202 9.72 17.8802 9.26 18.3402C8.82 18.7802 8.12 19.0002 7.16 19.0002H1.91V16.8702H6.32C6.68 16.8702 6.92 16.8102 7.04 16.6902C7.16 16.5702 7.22 16.3402 7.22 16.0002ZM0.619995 0.220215H3.35V19.0002H0.619995V0.220215ZM18.3533 4.33022V6.70022H17.2733C16.0133 6.70022 15.3833 7.43022 15.3833 8.89022V9.52022H15.2633V6.97022C15.2633 6.55022 15.3533 6.14022 15.5333 5.74022C15.7333 5.32022 16.0133 4.98022 16.3733 4.72022C16.7533 4.46022 17.2133 4.33022 17.7533 4.33022H18.3533ZM15.3833 19.0002H12.6833V4.36022H15.3833V7.09022V19.0002ZM22.4117 7.36022V16.0002C22.4117 16.3402 22.4717 16.5702 22.5917 16.6902C22.7117 16.8102 22.9517 16.8702 23.3117 16.8702H24.0617V19.0002H22.5617C21.6017 19.0002 20.8917 18.7802 20.4317 18.3402C19.9917 17.8802 19.7717 17.2202 19.7717 16.3602V7.03022C19.7717 6.15022 19.9917 5.49022 20.4317 5.05022C20.8917 4.59022 21.6017 4.36022 22.5617 4.36022H24.2117V6.49022H23.3117C22.9517 6.49022 22.7117 6.55022 22.5917 6.67022C22.4717 6.77022 22.4117 7.00022 22.4117 7.36022ZM25.6517 12.1302V7.36022C25.6517 7.00022 25.5917 6.77022 25.4717 6.67022C25.3717 6.55022 25.1417 6.49022 24.7817 6.49022H23.8217V4.36022H25.5017C26.4817 4.36022 27.1917 4.59022 27.6317 5.05022C28.0917 5.49022 28.3217 6.15022 28.3217 7.03022V12.1302H25.6517ZM25.5917 15.9702V14.7702H28.2317V16.3602C28.2317 17.2202 28.0117 17.8802 27.5717 18.3402C27.1317 18.7802 26.4217 19.0002 25.4417 19.0002H23.8217V16.8702H24.6917C25.0717 16.8702 25.3117 16.8102 25.4117 16.6902C25.5317 16.5702 25.5917 16.3302 25.5917 15.9702ZM28.3217 10.5402V12.5202H20.7317V10.5402H28.3217ZM33.1623 12.1902H30.4623V7.03022C30.4623 6.15022 30.6823 5.49022 31.1223 5.05022C31.5623 4.59022 32.2423 4.36022 33.1623 4.36022H34.2423C34.8423 4.36022 35.3223 4.52022 35.6823 4.84022C36.0423 5.16022 36.2223 5.68022 36.2223 6.40022V8.41022H36.1023V7.60022C36.1023 7.22022 36.0223 6.95022 35.8623 6.79022C35.7023 6.63022 35.4523 6.55022 35.1123 6.55022H34.0623C33.7023 6.55022 33.4623 6.61022 33.3423 6.73022C33.2223 6.83022 33.1623 7.06022 33.1623 7.42022V12.1902ZM38.8023 19.0002H36.1023V6.46022V6.25022V4.36022H38.8023V19.0002ZM30.4623 11.1702H33.1623V15.9402C33.1623 16.2802 33.2223 16.5102 33.3423 16.6302C33.4623 16.7502 33.7023 16.8102 34.0623 16.8102H35.1123C35.4523 16.8102 35.7023 16.7402 35.8623 16.6002C36.0223 16.4402 36.1023 16.1602 36.1023 15.7602V14.9802H36.2223V16.9602C36.2223 17.6802 36.0423 18.2002 35.6823 18.5202C35.3223 18.8402 34.8423 19.0002 34.2423 19.0002H33.1623C32.2423 19.0002 31.5623 18.7802 31.1223 18.3402C30.6823 17.8802 30.4623 17.2202 30.4623 16.3602V11.1702ZM49.1028 14.9202H46.6428L44.0628 5.29022V19.0002H41.6928V0.220215H44.6628L47.8728 11.8602L51.0828 0.220215H54.0528V19.0002H51.6828V5.26022L49.1028 14.9202ZM62.8616 14.2002V7.39022C62.8616 7.01022 62.8016 6.77022 62.6816 6.67022C62.5816 6.55022 62.3416 6.49022 61.9616 6.49022H61.0616V4.36022H62.7416C63.7216 4.36022 64.4316 4.59022 64.8716 5.05022C65.3116 5.49022 65.5316 6.15022 65.5316 7.03022V14.2002H62.8616ZM62.8616 15.9702V12.9402H65.5316V16.3602C65.5316 17.2202 65.3116 17.8802 64.8716 18.3402C64.4316 18.7802 63.7216 19.0002 62.7416 19.0002H60.9116V16.8702H61.9616C62.3416 16.8702 62.5816 16.8102 62.6816 16.6902C62.8016 16.5702 62.8616 16.3302 62.8616 15.9702ZM59.4416 7.39022V14.2302H56.7716V7.03022C56.7716 6.15022 56.9916 5.49022 57.4316 5.05022C57.8716 4.59022 58.5716 4.36022 59.5316 4.36022H61.2416V6.49022H60.3416C59.9816 6.49022 59.7416 6.55022 59.6216 6.67022C59.5016 6.77022 59.4416 7.01022 59.4416 7.39022ZM59.4416 12.7602V15.9702C59.4416 16.3302 59.5016 16.5702 59.6216 16.6902C59.7416 16.8102 59.9816 16.8702 60.3416 16.8702H61.1516V19.0002H59.5316C58.5716 19.0002 57.8716 18.7802 57.4316 18.3402C56.9916 17.8802 56.7716 17.2202 56.7716 16.3602V12.7602H59.4416ZM73.9651 14.2002V7.39022C73.9651 7.01022 73.9051 6.77022 73.7851 6.67022C73.6851 6.55022 73.4451 6.49022 73.0651 6.49022H72.1651V4.36022H73.8451C74.8251 4.36022 75.5351 4.59022 75.9751 5.05022C76.4151 5.49022 76.6351 6.15022 76.6351 7.03022V14.2002H73.9651ZM73.9651 15.9702V12.9402H76.6351V16.3602C76.6351 17.2202 76.4151 17.8802 75.9751 18.3402C75.5351 18.7802 74.8251 19.0002 73.8451 19.0002H72.0151V16.8702H73.0651C73.4451 16.8702 73.6851 16.8102 73.7851 16.6902C73.9051 16.5702 73.9651 16.3302 73.9651 15.9702ZM70.5451 7.39022V14.2302H67.8751V7.03022C67.8751 6.15022 68.0951 5.49022 68.5351 5.05022C68.9751 4.59022 69.6751 4.36022 70.6351 4.36022H72.3451V6.49022H71.4451C71.0851 6.49022 70.8451 6.55022 70.7251 6.67022C70.6051 6.77022 70.5451 7.01022 70.5451 7.39022ZM70.5451 12.7602V15.9702C70.5451 16.3302 70.6051 16.5702 70.7251 16.6902C70.8451 16.8102 71.0851 16.8702 71.4451 16.8702H72.2551V19.0002H70.6351C69.6751 19.0002 68.9751 18.7802 68.5351 18.3402C68.0951 17.8802 67.8751 17.2202 67.8751 16.3602V12.7602H70.5451ZM81.8286 19.0002H79.1286V4.36022H81.8286V6.19022V6.37022V19.0002ZM87.4686 19.0002H84.7686V7.42022C84.7686 7.06022 84.7086 6.83022 84.5886 6.73022C84.4686 6.61022 84.2286 6.55022 83.8686 6.55022H82.8186C82.4786 6.55022 82.2286 6.63022 82.0686 6.79022C81.9086 6.95022 81.8286 7.22022 81.8286 7.60022V8.56022H81.7086V6.40022C81.7086 5.68022 81.8886 5.16022 82.2486 4.84022C82.6086 4.52022 83.0886 4.36022 83.6886 4.36022H84.7686C85.6886 4.36022 86.3686 4.59022 86.8086 5.05022C87.2486 5.49022 87.4686 6.15022 87.4686 7.03022V19.0002Z" fill="#1A202C"/>
</svg>
